<svg width="41" height="42" viewBox="0 0 41 42" fill="none" xmlns="http://www.w3.org/2000/svg">
<path d="M5.51953 10.7441H8.89123H35.8648" stroke="#959595" stroke-width="2.2478" stroke-linecap="round" stroke-linejoin="round"/>
<path d="M13.9487 10.7434V7.3717C13.9487 6.47747 14.3039 5.61986 14.9362 4.98755C15.5685 4.35523 16.4261 4 17.3204 4H24.0638C24.958 4 25.8156 4.35523 26.4479 4.98755C27.0802 5.61986 27.4355 6.47747 27.4355 7.3717V10.7434M32.493 10.7434V34.3453C32.493 35.2395 32.1378 36.0971 31.5055 36.7294C30.8731 37.3618 30.0155 37.717 29.1213 37.717H12.2628C11.3686 37.717 10.511 37.3618 9.87866 36.7294C9.24634 36.0971 8.89111 35.2395 8.89111 34.3453V10.7434H32.493Z" stroke="#959595" stroke-width="2.2478" stroke-linecap="round" stroke-linejoin="round"/>
<path d="M17.3203 19.1738V29.2889" stroke="#959595" stroke-width="2.2478" stroke-linecap="round" stroke-linejoin="round"/>
<path d="M24.064 19.1738V29.2889" stroke="#959595" stroke-width="2.2478" stroke-linecap="round" stroke-linejoin="round"/>
</svg>
